<svg width="139" height="58" viewBox="0 0 139 58" fill="none" xmlns="http://www.w3.org/2000/svg">
<path d="M11.6172 27.82L5.086 6.53778H4.91901C4.94375 7.04494 4.98086 7.81187 5.03033 8.83856C5.09218 9.85288 5.14785 10.9352 5.19733 12.0856C5.24681 13.236 5.27155 14.2751 5.27155 15.2028V27.82H0.131897V0.693054H7.96198L14.3819 21.4372H14.4932L21.3028 0.693054H29.1329V27.82H23.7706V14.9802C23.7706 14.1266 23.7829 13.1432 23.8077 12.03C23.8448 10.9167 23.8881 9.85907 23.9376 8.85712C23.987 7.84279 24.0241 7.08205 24.0489 6.57489H23.8819L16.8868 27.82H11.6172Z" fill="#1B2426"/>
<path d="M52.586 27.82L50.6192 21.363H40.7296L38.7628 27.82H32.5655L42.1397 0.581726H49.1719L58.7833 27.82H52.586ZM49.2462 16.5388L47.2794 10.2302C47.1557 9.80959 46.9887 9.2715 46.7784 8.61591C46.5805 7.94794 46.3764 7.27378 46.1661 6.59344C45.9682 5.90074 45.8074 5.3008 45.6837 4.79364C45.56 5.3008 45.3868 5.93166 45.1641 6.68622C44.9538 7.42841 44.7497 8.13348 44.5518 8.80145C44.3539 9.46942 44.2116 9.94566 44.1251 10.2302L42.1768 16.5388H49.2462Z" fill="#1B2426"/>
<path d="M70.1202 0.693054C72.5818 0.693054 74.6104 0.989929 76.2061 1.58368C77.8142 2.17743 79.0079 3.07424 79.7872 4.27411C80.5665 5.47398 80.9561 6.98928 80.9561 8.82001C80.9561 10.057 80.7211 11.1393 80.251 12.0671C79.781 12.9948 79.1625 13.7803 78.3956 14.4235C77.6286 15.0668 76.7999 15.5925 75.9092 16.0007L83.8878 27.82H77.5049L71.0294 17.4108H67.9678V27.82H62.2159V0.693054H70.1202ZM69.712 5.40594H67.9678V12.735H69.8233C71.7283 12.735 73.0889 12.4196 73.9053 11.7888C74.7341 11.1455 75.1485 10.2054 75.1485 8.96844C75.1485 7.68199 74.7032 6.76662 73.8126 6.22235C72.9343 5.67808 71.5674 5.40594 69.712 5.40594Z" fill="#1B2426"/>
<path d="M90.1778 27.82V0.693054H95.9297V27.82H90.1778Z" fill="#1B2426"/>
<path d="M102.758 27.82V0.693054H108.51V27.82H102.758Z" fill="#1B2426"/>
<path d="M132.167 27.82L130.2 21.363H120.311L118.344 27.82H112.147L121.721 0.581726H128.753L138.364 27.82H132.167ZM130.2 21.363L126.86 10.2302C126.737 9.80959 126.57 9.2715 126.359 8.61591C126.162 7.94794 125.957 7.27378 125.747 6.59344C125.549 5.90074 125.388 5.3008 125.265 4.79364C125.141 5.3008 124.968 5.93166 124.745 6.68622C124.535 7.42841 124.331 8.13348 124.133 8.80145C123.935 9.46942 123.793 9.94566 123.706 10.2302L120.311 21.363H130.2Z" fill="#1B2426"/>
<path d="M17.8145 49.5434C17.8145 51.1515 17.4249 52.5493 16.6456 53.7368C15.8663 54.9243 14.7283 55.8397 13.2315 56.4829C11.7471 57.1261 9.94114 57.4477 7.81354 57.4477C6.87343 57.4477 5.95188 57.3859 5.04889 57.2622C4.15826 57.1385 3.29856 56.9591 2.46979 56.7241C1.65338 56.4767 0.874084 56.1737 0.131897 55.8149V50.4712C1.41836 51.0402 2.75429 51.5535 4.13971 52.0112C5.52513 52.4689 6.89817 52.6977 8.25885 52.6977C9.19895 52.6977 9.95351 52.574 10.5225 52.3266C11.1039 52.0792 11.5245 51.7391 11.7842 51.3061C12.044 50.8732 12.1739 50.3784 12.1739 49.8218C12.1739 49.1414 11.945 48.56 11.4874 48.0776C11.0297 47.5952 10.3988 47.1437 9.59479 46.7231C8.80312 46.3026 7.90631 45.8511 6.90436 45.3686C6.2735 45.0718 5.58698 44.713 4.84479 44.2925C4.1026 43.8595 3.39752 43.3338 2.72955 42.7153C2.06158 42.0968 1.51113 41.3485 1.07819 40.4702C0.657613 39.5796 0.447327 38.5158 0.447327 37.2788C0.447327 35.6584 0.81842 34.2729 1.56061 33.1225C2.3028 31.9722 3.36041 31.0939 4.73346 30.4878C6.11888 29.8693 7.75169 29.56 9.6319 29.56C11.0421 29.56 12.3842 29.727 13.6583 30.061C14.9447 30.3826 16.2868 30.8527 17.6846 31.4712L15.8292 35.9429C14.5798 35.4357 13.4603 35.046 12.4708 34.7739C11.4812 34.4894 10.473 34.3472 9.44635 34.3472C8.7289 34.3472 8.1166 34.4647 7.60944 34.6997C7.10227 34.9223 6.71881 35.244 6.45905 35.6645C6.19928 36.0727 6.0694 36.549 6.0694 37.0932C6.0694 37.7365 6.25494 38.2807 6.62604 38.7261C7.0095 39.159 7.57851 39.5796 8.33307 39.9878C9.1 40.396 10.0525 40.8722 11.1905 41.4165C12.5759 42.0721 13.7572 42.7586 14.7344 43.4761C15.724 44.1811 16.4848 45.0161 17.0167 45.9809C17.5486 46.9334 17.8145 48.1209 17.8145 49.5434Z" fill="#1B2426"/>
<path d="M23.7507 57.0766V29.9497H29.1366V57.0766H23.7507Z" fill="#1B2426"/>
<path d="M56.1114 57.2622H35.9239V53.5327L48.9307 34.8852H36.2764V30.1352H55.7589V33.8462L42.7706 52.5122H56.1114V57.2622Z" fill="#1B2426"/>
<path d="M85.6597 43.9028C85.6597 45.9933 85.4 47.8983 84.8804 49.6177C84.3609 51.3247 83.5692 52.7967 82.5054 54.0337C81.454 55.2707 80.1181 56.2231 78.4976 56.8911C76.8772 57.5467 74.9599 57.8745 72.7457 57.8745C70.5315 57.8745 68.6142 57.5467 66.9937 56.8911C65.3733 56.2231 64.0311 55.2707 62.9673 54.0337C61.9159 52.7967 61.1304 51.3185 60.6109 49.5991C60.0914 47.8797 59.8316 45.9686 59.8316 43.8657C59.8316 41.0578 60.2893 38.6147 61.2047 36.5366C62.1324 34.4461 63.5549 32.8257 65.4722 31.6753C67.3895 30.5249 69.8264 29.9497 72.7828 29.9497C75.7268 29.9497 78.1451 30.5249 80.0377 31.6753C81.9426 32.8257 83.3528 34.4461 84.2681 36.5366C85.1959 38.6271 85.6597 41.0825 85.6597 43.9028ZM65.8619 43.9028C65.8619 45.7954 66.0969 47.4282 66.567 48.8013C67.0494 50.1619 67.7977 51.2134 68.8121 51.9556C69.8264 52.6854 71.1376 53.0503 72.7457 53.0503C74.3785 53.0503 75.702 52.6854 76.7164 51.9556C77.7307 51.2134 78.4667 50.1619 78.9244 48.8013C79.3944 47.4282 79.6295 45.7954 79.6295 43.9028C79.6295 41.0578 79.0976 38.8188 78.0338 37.186C76.97 35.5532 75.2196 34.7368 72.7828 34.7368C71.1623 34.7368 69.8388 35.1079 68.8121 35.8501C67.7977 36.5799 67.0494 37.6313 66.567 39.0044C66.0969 40.3651 65.8619 41.9979 65.8619 43.9028Z" fill="#1B2426"/>
<path d="M111.748 29.9497L102.526 57.0766H96.2545L87.0513 29.9497H92.8589L97.9615 46.0923C98.0481 46.3644 98.1903 46.8778 98.3882 47.6323C98.5862 48.3745 98.7841 49.1662 98.982 50.0073C99.1923 50.8361 99.3345 51.5226 99.4088 52.0669C99.483 51.5226 99.6129 50.8361 99.7984 50.0073C99.9963 49.1785 100.188 48.3931 100.374 47.6509C100.572 46.8963 100.714 46.3768 100.8 46.0923L105.94 29.9497H111.748Z" fill="#1B2426"/>
<path d="M131.768 57.188H117.945H111.748L121.322 29.9497H128.354L137.965 57.188H131.768ZM131.768 57.188L126.461 39.5981C126.338 39.1776 126.171 38.6395 125.961 37.9839C125.763 37.3159 125.558 36.6417 125.348 35.9614C125.15 35.2687 124.989 34.6688 124.866 34.1616C124.742 34.6688 124.569 35.2996 124.346 36.0542C124.136 36.7964 123.932 37.5014 123.734 38.1694C123.536 38.8374 123.394 39.3136 123.307 39.5981L117.945 57.188H131.768Z" fill="#1B2426"/>
</svg>
